<?xml version="1.0" encoding="utf-8" standalone="no"?>
<!DOCTYPE svg PUBLIC "-//W3C//DTD SVG 1.1//EN"
  "http://www.w3.org/Graphics/SVG/1.1/DTD/svg11.dtd">
<svg xmlns:xlink="http://www.w3.org/1999/xlink" width="765.26391pt" height="245.348781pt" viewBox="0 0 765.26391 245.348781" xmlns="http://www.w3.org/2000/svg" version="1.1">
 <metadata>
  <rdf:RDF xmlns:dc="http://purl.org/dc/elements/1.1/" xmlns:cc="http://creativecommons.org/ns#" xmlns:rdf="http://www.w3.org/1999/02/22-rdf-syntax-ns#">
   <cc:Work>
    <dc:type rdf:resource="http://purl.org/dc/dcmitype/StillImage"/>
    <dc:date>2026-07-25T23:48:55.465259</dc:date>
    <dc:format>image/svg+xml</dc:format>
    <dc:creator>
     <cc:Agent>
      <dc:title>Matplotlib v3.11.1, https://matplotlib.org/</dc:title>
     </cc:Agent>
    </dc:creator>
   </cc:Work>
  </rdf:RDF>
 </metadata>
 <defs>
  <style type="text/css">*{stroke-linejoin: round; stroke-linecap: butt}</style>
 </defs>
 <g id="figure_1">
  <g id="patch_1">
   <path d="M 0 245.348781 
L 765.26391 245.348781 
L 765.26391 0 
L 0 0 
z
" style="fill: #fcfcfb"/>
  </g>
  <g id="axes_1">
   <g id="patch_2">
    <path d="M 43.30875 207.648 
L 198.578315 207.648 
L 198.578315 30.24 
L 43.30875 30.24 
z
" style="fill: #fcfcfb"/>
   </g>
   <g id="matplotlib.axis_1">
    <g id="xtick_1">
     <g id="line2d_1">
      <path d="M 50.366458 207.648 
L 50.366458 30.24 
" clip-path="url(#p831cbb59c7)" style="fill: none; stroke: #e4e4e1; stroke-width: 0.7; stroke-linecap: square"/>
     </g>
     <g id="line2d_2">
      <defs>
       <path id="mfe868e00b8" d="M 0 0 
L 0 3.5 
" style="stroke: #5c5c5c; stroke-width: 0.8"/>
      </defs>
      <g>
       <use xlink:href="#mfe868e00b8" x="50.366458" y="207.648" style="fill: #5c5c5c; stroke: #5c5c5c; stroke-width: 0.8"/>
      </g>
     </g>
     <g id="text_1">
      <!-- 0 -->
      <g style="fill: #5c5c5c" transform="translate(47.34427 221.865773) scale(0.095 -0.095)">
       <defs>
        <path id="DejaVuSans-13" d="M 2034 4250 
Q 1547 4250 1301 3770 
Q 1056 3291 1056 2328 
Q 1056 1369 1301 889 
Q 1547 409 2034 409 
Q 2525 409 2770 889 
Q 3016 1369 3016 2328 
Q 3016 3291 2770 3770 
Q 2525 4250 2034 4250 
z
M 2034 4750 
Q 2819 4750 3233 4129 
Q 3647 3509 3647 2328 
Q 3647 1150 3233 529 
Q 2819 -91 2034 -91 
Q 1250 -91 836 529 
Q 422 1150 422 2328 
Q 422 3509 836 4129 
Q 1250 4750 2034 4750 
z
" transform="scale(0.015625)"/>
       </defs>
       <use xlink:href="#DejaVuSans-13"/>
      </g>
     </g>
    </g>
    <g id="xtick_2">
     <g id="line2d_3">
      <path d="M 106.828118 207.648 
L 106.828118 30.24 
" clip-path="url(#p831cbb59c7)" style="fill: none; stroke: #e4e4e1; stroke-width: 0.7; stroke-linecap: square"/>
     </g>
     <g id="line2d_4">
      <g>
       <use xlink:href="#mfe868e00b8" x="106.828118" y="207.648" style="fill: #5c5c5c; stroke: #5c5c5c; stroke-width: 0.8"/>
      </g>
     </g>
     <g id="text_2">
      <!-- 10 -->
      <g style="fill: #5c5c5c" transform="translate(100.783743 221.865773) scale(0.095 -0.095)">
       <defs>
        <path id="DejaVuSans-14" d="M 794 531 
L 1825 531 
L 1825 4091 
L 703 3866 
L 703 4441 
L 1819 4666 
L 2450 4666 
L 2450 531 
L 3481 531 
L 3481 0 
L 794 0 
L 794 531 
z
" transform="scale(0.015625)"/>
       </defs>
       <use xlink:href="#DejaVuSans-14"/>
       <use xlink:href="#DejaVuSans-13" transform="translate(63.625 0)"/>
      </g>
     </g>
    </g>
    <g id="xtick_3">
     <g id="line2d_5">
      <path d="M 163.289778 207.648 
L 163.289778 30.24 
" clip-path="url(#p831cbb59c7)" style="fill: none; stroke: #e4e4e1; stroke-width: 0.7; stroke-linecap: square"/>
     </g>
     <g id="line2d_6">
      <g>
       <use xlink:href="#mfe868e00b8" x="163.289778" y="207.648" style="fill: #5c5c5c; stroke: #5c5c5c; stroke-width: 0.8"/>
      </g>
     </g>
     <g id="text_3">
      <!-- 20 -->
      <g style="fill: #5c5c5c" transform="translate(157.245403 221.865773) scale(0.095 -0.095)">
       <defs>
        <path id="DejaVuSans-15" d="M 1228 531 
L 3431 531 
L 3431 0 
L 469 0 
L 469 531 
Q 828 903 1448 1529 
Q 2069 2156 2228 2338 
Q 2531 2678 2651 2914 
Q 2772 3150 2772 3378 
Q 2772 3750 2511 3984 
Q 2250 4219 1831 4219 
Q 1534 4219 1204 4116 
Q 875 4013 500 3803 
L 500 4441 
Q 881 4594 1212 4672 
Q 1544 4750 1819 4750 
Q 2544 4750 2975 4387 
Q 3406 4025 3406 3419 
Q 3406 3131 3298 2873 
Q 3191 2616 2906 2266 
Q 2828 2175 2409 1742 
Q 1991 1309 1228 531 
z
" transform="scale(0.015625)"/>
       </defs>
       <use xlink:href="#DejaVuSans-15"/>
       <use xlink:href="#DejaVuSans-13" transform="translate(63.625 0)"/>
      </g>
     </g>
    </g>
    <g id="text_4">
     <!-- costs_bps -->
     <g style="fill: #5c5c5c" transform="translate(96.512283 235.746437) scale(0.1 -0.1)">
      <defs>
       <path id="DejaVuSans-46" d="M 3122 3366 
L 3122 2828 
Q 2878 2963 2633 3030 
Q 2388 3097 2138 3097 
Q 1578 3097 1268 2742 
Q 959 2388 959 1747 
Q 959 1106 1268 751 
Q 1578 397 2138 397 
Q 2388 397 2633 464 
Q 2878 531 3122 666 
L 3122 134 
Q 2881 22 2623 -34 
Q 2366 -91 2075 -91 
Q 1284 -91 818 406 
Q 353 903 353 1747 
Q 353 2603 823 3093 
Q 1294 3584 2113 3584 
Q 2378 3584 2631 3529 
Q 2884 3475 3122 3366 
z
" transform="scale(0.015625)"/>
       <path id="DejaVuSans-52" d="M 1959 3097 
Q 1497 3097 1228 2736 
Q 959 2375 959 1747 
Q 959 1119 1226 758 
Q 1494 397 1959 397 
Q 2419 397 2687 759 
Q 2956 1122 2956 1747 
Q 2956 2369 2687 2733 
Q 2419 3097 1959 3097 
z
M 1959 3584 
Q 2709 3584 3137 3096 
Q 3566 2609 3566 1747 
Q 3566 888 3137 398 
Q 2709 -91 1959 -91 
Q 1206 -91 779 398 
Q 353 888 353 1747 
Q 353 2609 779 3096 
Q 1206 3584 1959 3584 
z
" transform="scale(0.015625)"/>
       <path id="DejaVuSans-56" d="M 2834 3397 
L 2834 2853 
Q 2591 2978 2328 3040 
Q 2066 3103 1784 3103 
Q 1356 3103 1142 2972 
Q 928 2841 928 2578 
Q 928 2378 1081 2264 
Q 1234 2150 1697 2047 
L 1894 2003 
Q 2506 1872 2764 1633 
Q 3022 1394 3022 966 
Q 3022 478 2636 193 
Q 2250 -91 1575 -91 
Q 1294 -91 989 -36 
Q 684 19 347 128 
L 347 722 
Q 666 556 975 473 
Q 1284 391 1588 391 
Q 1994 391 2212 530 
Q 2431 669 2431 922 
Q 2431 1156 2273 1281 
Q 2116 1406 1581 1522 
L 1381 1569 
Q 847 1681 609 1914 
Q 372 2147 372 2553 
Q 372 3047 722 3315 
Q 1072 3584 1716 3584 
Q 2034 3584 2315 3537 
Q 2597 3491 2834 3397 
z
" transform="scale(0.015625)"/>
       <path id="DejaVuSans-57" d="M 1172 4494 
L 1172 3500 
L 2356 3500 
L 2356 3053 
L 1172 3053 
L 1172 1153 
Q 1172 725 1289 603 
Q 1406 481 1766 481 
L 2356 481 
L 2356 0 
L 1766 0 
Q 1100 0 847 248 
Q 594 497 594 1153 
L 594 3053 
L 172 3053 
L 172 3500 
L 594 3500 
L 594 4494 
L 1172 4494 
z
" transform="scale(0.015625)"/>
       <path id="DejaVuSans-42" d="M 3263 -1063 
L 3263 -1509 
L -63 -1509 
L -63 -1063 
L 3263 -1063 
z
" transform="scale(0.015625)"/>
       <path id="DejaVuSans-45" d="M 3116 1747 
Q 3116 2381 2855 2742 
Q 2594 3103 2138 3103 
Q 1681 3103 1420 2742 
Q 1159 2381 1159 1747 
Q 1159 1113 1420 752 
Q 1681 391 2138 391 
Q 2594 391 2855 752 
Q 3116 1113 3116 1747 
z
M 1159 2969 
Q 1341 3281 1617 3432 
Q 1894 3584 2278 3584 
Q 2916 3584 3314 3078 
Q 3713 2572 3713 1747 
Q 3713 922 3314 415 
Q 2916 -91 2278 -91 
Q 1894 -91 1617 61 
Q 1341 213 1159 525 
L 1159 0 
L 581 0 
L 581 4863 
L 1159 4863 
L 1159 2969 
z
" transform="scale(0.015625)"/>
       <path id="DejaVuSans-53" d="M 1159 525 
L 1159 -1331 
L 581 -1331 
L 581 3500 
L 1159 3500 
L 1159 2969 
Q 1341 3281 1617 3432 
Q 1894 3584 2278 3584 
Q 2916 3584 3314 3078 
Q 3713 2572 3713 1747 
Q 3713 922 3314 415 
Q 2916 -91 2278 -91 
Q 1894 -91 1617 61 
Q 1341 213 1159 525 
z
M 3116 1747 
Q 3116 2381 2855 2742 
Q 2594 3103 2138 3103 
Q 1681 3103 1420 2742 
Q 1159 2381 1159 1747 
Q 1159 1113 1420 752 
Q 1681 391 2138 391 
Q 2594 391 2855 752 
Q 3116 1113 3116 1747 
z
" transform="scale(0.015625)"/>
      </defs>
      <use xlink:href="#DejaVuSans-46"/>
      <use xlink:href="#DejaVuSans-52" transform="translate(54.984375 0)"/>
      <use xlink:href="#DejaVuSans-56" transform="translate(116.171875 0)"/>
      <use xlink:href="#DejaVuSans-57" transform="translate(168.265625 0)"/>
      <use xlink:href="#DejaVuSans-56" transform="translate(207.46875 0)"/>
      <use xlink:href="#DejaVuSans-42" transform="translate(259.5625 0)"/>
      <use xlink:href="#DejaVuSans-45" transform="translate(309.5625 0)"/>
      <use xlink:href="#DejaVuSans-53" transform="translate(373.046875 0)"/>
      <use xlink:href="#DejaVuSans-56" transform="translate(436.53125 0)"/>
     </g>
    </g>
   </g>
   <g id="matplotlib.axis_2">
    <g id="ytick_1">
     <g id="line2d_7">
      <path d="M 43.30875 192.045268 
L 198.578315 192.045268 
" clip-path="url(#p831cbb59c7)" style="fill: none; stroke: #e4e4e1; stroke-width: 0.7; stroke-linecap: square"/>
     </g>
     <g id="line2d_8">
      <defs>
       <path id="m6d9076f696" d="M 0 0 
L -3.5 0 
" style="stroke: #5c5c5c; stroke-width: 0.8"/>
      </defs>
      <g>
       <use xlink:href="#m6d9076f696" x="43.30875" y="192.045268" style="fill: #5c5c5c; stroke: #5c5c5c; stroke-width: 0.8"/>
      </g>
     </g>
     <g id="text_5">
      <!-- 0.4 -->
      <g style="fill: #5c5c5c" transform="translate(21.200781 195.654155) scale(0.095 -0.095)">
       <defs>
        <path id="DejaVuSans-11" d="M 684 794 
L 1344 794 
L 1344 0 
L 684 0 
L 684 794 
z
" transform="scale(0.015625)"/>
        <path id="DejaVuSans-17" d="M 2419 4116 
L 825 1625 
L 2419 1625 
L 2419 4116 
z
M 2253 4666 
L 3047 4666 
L 3047 1625 
L 3713 1625 
L 3713 1100 
L 3047 1100 
L 3047 0 
L 2419 0 
L 2419 1100 
L 313 1100 
L 313 1709 
L 2253 4666 
z
" transform="scale(0.015625)"/>
       </defs>
       <use xlink:href="#DejaVuSans-13"/>
       <use xlink:href="#DejaVuSans-11" transform="translate(63.625 0)"/>
       <use xlink:href="#DejaVuSans-17" transform="translate(95.40625 0)"/>
      </g>
     </g>
    </g>
    <g id="ytick_2">
     <g id="line2d_9">
      <path d="M 43.30875 157.143732 
L 198.578315 157.143732 
" clip-path="url(#p831cbb59c7)" style="fill: none; stroke: #e4e4e1; stroke-width: 0.7; stroke-linecap: square"/>
     </g>
     <g id="line2d_10">
      <g>
       <use xlink:href="#m6d9076f696" x="43.30875" y="157.143732" style="fill: #5c5c5c; stroke: #5c5c5c; stroke-width: 0.8"/>
      </g>
     </g>
     <g id="text_6">
      <!-- 0.5 -->
      <g style="fill: #5c5c5c" transform="translate(21.200781 160.752618) scale(0.095 -0.095)">
       <defs>
        <path id="DejaVuSans-18" d="M 691 4666 
L 3169 4666 
L 3169 4134 
L 1269 4134 
L 1269 2991 
Q 1406 3038 1543 3061 
Q 1681 3084 1819 3084 
Q 2600 3084 3056 2656 
Q 3513 2228 3513 1497 
Q 3513 744 3044 326 
Q 2575 -91 1722 -91 
Q 1428 -91 1123 -41 
Q 819 9 494 109 
L 494 744 
Q 775 591 1075 516 
Q 1375 441 1709 441 
Q 2250 441 2565 725 
Q 2881 1009 2881 1497 
Q 2881 1984 2565 2268 
Q 2250 2553 1709 2553 
Q 1456 2553 1204 2497 
Q 953 2441 691 2322 
L 691 4666 
z
" transform="scale(0.015625)"/>
       </defs>
       <use xlink:href="#DejaVuSans-13"/>
       <use xlink:href="#DejaVuSans-11" transform="translate(63.625 0)"/>
       <use xlink:href="#DejaVuSans-18" transform="translate(95.40625 0)"/>
      </g>
     </g>
    </g>
    <g id="ytick_3">
     <g id="line2d_11">
      <path d="M 43.30875 122.242195 
L 198.578315 122.242195 
" clip-path="url(#p831cbb59c7)" style="fill: none; stroke: #e4e4e1; stroke-width: 0.7; stroke-linecap: square"/>
     </g>
     <g id="line2d_12">
      <g>
       <use xlink:href="#m6d9076f696" x="43.30875" y="122.242195" style="fill: #5c5c5c; stroke: #5c5c5c; stroke-width: 0.8"/>
      </g>
     </g>
     <g id="text_7">
      <!-- 0.6 -->
      <g style="fill: #5c5c5c" transform="translate(21.200781 125.851082) scale(0.095 -0.095)">
       <defs>
        <path id="DejaVuSans-19" d="M 2113 2584 
Q 1688 2584 1439 2293 
Q 1191 2003 1191 1497 
Q 1191 994 1439 701 
Q 1688 409 2113 409 
Q 2538 409 2786 701 
Q 3034 994 3034 1497 
Q 3034 2003 2786 2293 
Q 2538 2584 2113 2584 
z
M 3366 4563 
L 3366 3988 
Q 3128 4100 2886 4159 
Q 2644 4219 2406 4219 
Q 1781 4219 1451 3797 
Q 1122 3375 1075 2522 
Q 1259 2794 1537 2939 
Q 1816 3084 2150 3084 
Q 2853 3084 3261 2657 
Q 3669 2231 3669 1497 
Q 3669 778 3244 343 
Q 2819 -91 2113 -91 
Q 1303 -91 875 529 
Q 447 1150 447 2328 
Q 447 3434 972 4092 
Q 1497 4750 2381 4750 
Q 2619 4750 2861 4703 
Q 3103 4656 3366 4563 
z
" transform="scale(0.015625)"/>
       </defs>
       <use xlink:href="#DejaVuSans-13"/>
       <use xlink:href="#DejaVuSans-11" transform="translate(63.625 0)"/>
       <use xlink:href="#DejaVuSans-19" transform="translate(95.40625 0)"/>
      </g>
     </g>
    </g>
    <g id="ytick_4">
     <g id="line2d_13">
      <path d="M 43.30875 87.340659 
L 198.578315 87.340659 
" clip-path="url(#p831cbb59c7)" style="fill: none; stroke: #e4e4e1; stroke-width: 0.7; stroke-linecap: square"/>
     </g>
     <g id="line2d_14">
      <g>
       <use xlink:href="#m6d9076f696" x="43.30875" y="87.340659" style="fill: #5c5c5c; stroke: #5c5c5c; stroke-width: 0.8"/>
      </g>
     </g>
     <g id="text_8">
      <!-- 0.7 -->
      <g style="fill: #5c5c5c" transform="translate(21.200781 90.949545) scale(0.095 -0.095)">
       <defs>
        <path id="DejaVuSans-1a" d="M 525 4666 
L 3525 4666 
L 3525 4397 
L 1831 0 
L 1172 0 
L 2766 4134 
L 525 4134 
L 525 4666 
z
" transform="scale(0.015625)"/>
       </defs>
       <use xlink:href="#DejaVuSans-13"/>
       <use xlink:href="#DejaVuSans-11" transform="translate(63.625 0)"/>
       <use xlink:href="#DejaVuSans-1a" transform="translate(95.40625 0)"/>
      </g>
     </g>
    </g>
    <g id="ytick_5">
     <g id="line2d_15">
      <path d="M 43.30875 52.439122 
L 198.578315 52.439122 
" clip-path="url(#p831cbb59c7)" style="fill: none; stroke: #e4e4e1; stroke-width: 0.7; stroke-linecap: square"/>
     </g>
     <g id="line2d_16">
      <g>
       <use xlink:href="#m6d9076f696" x="43.30875" y="52.439122" style="fill: #5c5c5c; stroke: #5c5c5c; stroke-width: 0.8"/>
      </g>
     </g>
     <g id="text_9">
      <!-- 0.8 -->
      <g style="fill: #5c5c5c" transform="translate(21.200781 56.048009) scale(0.095 -0.095)">
       <defs>
        <path id="DejaVuSans-1b" d="M 2034 2216 
Q 1584 2216 1326 1975 
Q 1069 1734 1069 1313 
Q 1069 891 1326 650 
Q 1584 409 2034 409 
Q 2484 409 2743 651 
Q 3003 894 3003 1313 
Q 3003 1734 2745 1975 
Q 2488 2216 2034 2216 
z
M 1403 2484 
Q 997 2584 770 2862 
Q 544 3141 544 3541 
Q 544 4100 942 4425 
Q 1341 4750 2034 4750 
Q 2731 4750 3128 4425 
Q 3525 4100 3525 3541 
Q 3525 3141 3298 2862 
Q 3072 2584 2669 2484 
Q 3125 2378 3379 2068 
Q 3634 1759 3634 1313 
Q 3634 634 3220 271 
Q 2806 -91 2034 -91 
Q 1263 -91 848 271 
Q 434 634 434 1313 
Q 434 1759 690 2068 
Q 947 2378 1403 2484 
z
M 1172 3481 
Q 1172 3119 1398 2916 
Q 1625 2713 2034 2713 
Q 2441 2713 2670 2916 
Q 2900 3119 2900 3481 
Q 2900 3844 2670 4047 
Q 2441 4250 2034 4250 
Q 1625 4250 1398 4047 
Q 1172 3844 1172 3481 
z
" transform="scale(0.015625)"/>
       </defs>
       <use xlink:href="#DejaVuSans-13"/>
       <use xlink:href="#DejaVuSans-11" transform="translate(63.625 0)"/>
       <use xlink:href="#DejaVuSans-1b" transform="translate(95.40625 0)"/>
      </g>
     </g>
    </g>
    <g id="text_10">
     <!-- sharpe -->
     <g style="fill: #5c5c5c" transform="translate(14.798438 136.08775) rotate(-90) scale(0.1 -0.1)">
      <defs>
       <path id="DejaVuSans-4b" d="M 3513 2113 
L 3513 0 
L 2938 0 
L 2938 2094 
Q 2938 2591 2744 2837 
Q 2550 3084 2163 3084 
Q 1697 3084 1428 2787 
Q 1159 2491 1159 1978 
L 1159 0 
L 581 0 
L 581 4863 
L 1159 4863 
L 1159 2956 
Q 1366 3272 1645 3428 
Q 1925 3584 2291 3584 
Q 2894 3584 3203 3211 
Q 3513 2838 3513 2113 
z
" transform="scale(0.015625)"/>
       <path id="DejaVuSans-44" d="M 2194 1759 
Q 1497 1759 1228 1600 
Q 959 1441 959 1056 
Q 959 750 1161 570 
Q 1363 391 1709 391 
Q 2188 391 2477 730 
Q 2766 1069 2766 1631 
L 2766 1759 
L 2194 1759 
z
M 3341 1997 
L 3341 0 
L 2766 0 
L 2766 531 
Q 2569 213 2275 61 
Q 1981 -91 1556 -91 
Q 1019 -91 701 211 
Q 384 513 384 1019 
Q 384 1609 779 1909 
Q 1175 2209 1959 2209 
L 2766 2209 
L 2766 2266 
Q 2766 2663 2505 2880 
Q 2244 3097 1772 3097 
Q 1472 3097 1187 3025 
Q 903 2953 641 2809 
L 641 3341 
Q 956 3463 1253 3523 
Q 1550 3584 1831 3584 
Q 2591 3584 2966 3190 
Q 3341 2797 3341 1997 
z
" transform="scale(0.015625)"/>
       <path id="DejaVuSans-55" d="M 2631 2963 
Q 2534 3019 2420 3045 
Q 2306 3072 2169 3072 
Q 1681 3072 1420 2755 
Q 1159 2438 1159 1844 
L 1159 0 
L 581 0 
L 581 3500 
L 1159 3500 
L 1159 2956 
Q 1341 3275 1631 3429 
Q 1922 3584 2338 3584 
Q 2397 3584 2469 3576 
Q 2541 3569 2628 3553 
L 2631 2963 
z
" transform="scale(0.015625)"/>
       <path id="DejaVuSans-48" d="M 3597 1894 
L 3597 1613 
L 953 1613 
Q 991 1019 1311 708 
Q 1631 397 2203 397 
Q 2534 397 2845 478 
Q 3156 559 3463 722 
L 3463 178 
Q 3153 47 2828 -22 
Q 2503 -91 2169 -91 
Q 1331 -91 842 396 
Q 353 884 353 1716 
Q 353 2575 817 3079 
Q 1281 3584 2069 3584 
Q 2775 3584 3186 3129 
Q 3597 2675 3597 1894 
z
M 3022 2063 
Q 3016 2534 2758 2815 
Q 2500 3097 2075 3097 
Q 1594 3097 1305 2825 
Q 1016 2553 972 2059 
L 3022 2063 
z
" transform="scale(0.015625)"/>
      </defs>
      <use xlink:href="#DejaVuSans-56"/>
      <use xlink:href="#DejaVuSans-4b" transform="translate(52.09375 0)"/>
      <use xlink:href="#DejaVuSans-44" transform="translate(115.46875 0)"/>
      <use xlink:href="#DejaVuSans-55" transform="translate(176.75 0)"/>
      <use xlink:href="#DejaVuSans-53" transform="translate(217.859375 0)"/>
      <use xlink:href="#DejaVuSans-48" transform="translate(281.34375 0)"/>
     </g>
    </g>
   </g>
   <g id="line2d_17">
    <path d="M 50.366458 38.304 
L 64.481873 40.223585 
L 78.597288 42.143169 
L 92.712703 44.097655 
L 135.058948 49.926212 
L 191.520608 57.709254 
" clip-path="url(#p831cbb59c7)" style="fill: none; stroke: #37474f; stroke-width: 1.5; stroke-linecap: square"/>
    <defs>
     <path id="mc5656b1530" d="M 0 3 
C 0.795609 3 1.55874 2.683901 2.12132 2.12132 
C 2.683901 1.55874 3 0.795609 3 0 
C 3 -0.795609 2.683901 -1.55874 2.12132 -2.12132 
C 1.55874 -2.683901 0.795609 -3 0 -3 
C -0.795609 -3 -1.55874 -2.683901 -2.12132 -2.12132 
C -2.683901 -1.55874 -3 -0.795609 -3 0 
C -3 0.795609 -2.683901 1.55874 -2.12132 2.12132 
C -1.55874 2.683901 -0.795609 3 0 3 
z
" style="stroke: #37474f"/>
    </defs>
    <g clip-path="url(#p831cbb59c7)">
     <use xlink:href="#mc5656b1530" x="50.366458" y="38.304" style="fill: #37474f; stroke: #37474f"/>
     <use xlink:href="#mc5656b1530" x="64.481873" y="40.223585" style="fill: #37474f; stroke: #37474f"/>
     <use xlink:href="#mc5656b1530" x="78.597288" y="42.143169" style="fill: #37474f; stroke: #37474f"/>
     <use xlink:href="#mc5656b1530" x="92.712703" y="44.097655" style="fill: #37474f; stroke: #37474f"/>
     <use xlink:href="#mc5656b1530" x="135.058948" y="49.926212" style="fill: #37474f; stroke: #37474f"/>
     <use xlink:href="#mc5656b1530" x="191.520608" y="57.709254" style="fill: #37474f; stroke: #37474f"/>
    </g>
   </g>
   <g id="patch_3">
    <path d="M 43.30875 207.648 
L 43.30875 30.24 
" style="fill: none; stroke: #8a8a8a; stroke-width: 0.8; stroke-linejoin: miter; stroke-linecap: square"/>
   </g>
   <g id="patch_4">
    <path d="M 43.30875 207.648 
L 198.578315 207.648 
" style="fill: none; stroke: #8a8a8a; stroke-width: 0.8; stroke-linejoin: miter; stroke-linecap: square"/>
   </g>
   <g id="PathCollection_1">
    <path d="M 92.712703 49.341699 
C 94.103439 49.341699 95.437402 48.789154 96.420802 47.805754 
C 97.404201 46.822355 97.956747 45.488392 97.956747 44.097655 
C 97.956747 42.706918 97.404201 41.372955 96.420802 40.389556 
C 95.437402 39.406156 94.103439 38.853611 92.712703 38.853611 
C 91.321966 38.853611 89.988003 39.406156 89.004603 40.389556 
C 88.021204 41.372955 87.468658 42.706918 87.468658 44.097655 
C 87.468658 45.488392 88.021204 46.822355 89.004603 47.805754 
C 89.988003 48.789154 91.321966 49.341699 92.712703 49.341699 
L 92.712703 49.341699 
z
" clip-path="url(#p831cbb59c7)" style="fill: none; stroke: #c8501e; stroke-width: 2"/>
   </g>
   <g id="legend_1">
    <g id="PathCollection_2">
     <path d="M 58.50875 201.670169 
C 59.899487 201.670169 61.23345 201.117624 62.216849 200.134224 
C 63.200249 199.150825 63.752794 197.816862 63.752794 196.426125 
C 63.752794 195.035388 63.200249 193.701425 62.216849 192.718026 
C 61.23345 191.734626 59.899487 191.182081 58.50875 191.182081 
C 57.118013 191.182081 55.78405 191.734626 54.800651 192.718026 
C 53.817251 193.701425 53.264706 195.035388 53.264706 196.426125 
C 53.264706 197.816862 53.817251 199.150825 54.800651 200.134224 
C 55.78405 201.117624 57.118013 201.670169 58.50875 201.670169 
L 58.50875 201.670169 
z
" style="fill: none; stroke: #c8501e; stroke-width: 2"/>
    </g>
    <g id="text_11">
     <!-- shipped default -->
     <g transform="translate(72.90875 198.526125) scale(0.08 -0.08)">
      <defs>
       <path id="DejaVuSans-4c" d="M 603 3500 
L 1178 3500 
L 1178 0 
L 603 0 
L 603 3500 
z
M 603 4863 
L 1178 4863 
L 1178 4134 
L 603 4134 
L 603 4863 
z
" transform="scale(0.015625)"/>
       <path id="DejaVuSans-47" d="M 2906 2969 
L 2906 4863 
L 3481 4863 
L 3481 0 
L 2906 0 
L 2906 525 
Q 2725 213 2448 61 
Q 2172 -91 1784 -91 
Q 1150 -91 751 415 
Q 353 922 353 1747 
Q 353 2572 751 3078 
Q 1150 3584 1784 3584 
Q 2172 3584 2448 3432 
Q 2725 3281 2906 2969 
z
M 947 1747 
Q 947 1113 1208 752 
Q 1469 391 1925 391 
Q 2381 391 2643 752 
Q 2906 1113 2906 1747 
Q 2906 2381 2643 2742 
Q 2381 3103 1925 3103 
Q 1469 3103 1208 2742 
Q 947 2381 947 1747 
z
" transform="scale(0.015625)"/>
       <path id="DejaVuSans-3" transform="scale(0.015625)"/>
       <path id="DejaVuSans-49" d="M 2375 4863 
L 2375 4384 
L 1825 4384 
Q 1516 4384 1395 4259 
Q 1275 4134 1275 3809 
L 1275 3500 
L 2222 3500 
L 2222 3053 
L 1275 3053 
L 1275 0 
L 697 0 
L 697 3053 
L 147 3053 
L 147 3500 
L 697 3500 
L 697 3744 
Q 697 4328 969 4595 
Q 1241 4863 1831 4863 
L 2375 4863 
z
" transform="scale(0.015625)"/>
       <path id="DejaVuSans-58" d="M 544 1381 
L 544 3500 
L 1119 3500 
L 1119 1403 
Q 1119 906 1312 657 
Q 1506 409 1894 409 
Q 2359 409 2629 706 
Q 2900 1003 2900 1516 
L 2900 3500 
L 3475 3500 
L 3475 0 
L 2900 0 
L 2900 538 
Q 2691 219 2414 64 
Q 2138 -91 1772 -91 
Q 1169 -91 856 284 
Q 544 659 544 1381 
z
M 1991 3584 
L 1991 3584 
z
" transform="scale(0.015625)"/>
       <path id="DejaVuSans-4f" d="M 603 4863 
L 1178 4863 
L 1178 0 
L 603 0 
L 603 4863 
z
" transform="scale(0.015625)"/>
      </defs>
      <use xlink:href="#DejaVuSans-56"/>
      <use xlink:href="#DejaVuSans-4b" transform="translate(52.09375 0)"/>
      <use xlink:href="#DejaVuSans-4c" transform="translate(115.46875 0)"/>
      <use xlink:href="#DejaVuSans-53" transform="translate(143.25 0)"/>
      <use xlink:href="#DejaVuSans-53" transform="translate(206.734375 0)"/>
      <use xlink:href="#DejaVuSans-48" transform="translate(270.21875 0)"/>
      <use xlink:href="#DejaVuSans-47" transform="translate(331.75 0)"/>
      <use xlink:href="#DejaVuSans-3" transform="translate(395.234375 0)"/>
      <use xlink:href="#DejaVuSans-47" transform="translate(427.015625 0)"/>
      <use xlink:href="#DejaVuSans-48" transform="translate(490.5 0)"/>
      <use xlink:href="#DejaVuSans-49" transform="translate(552.03125 0)"/>
      <use xlink:href="#DejaVuSans-44" transform="translate(587.234375 0)"/>
      <use xlink:href="#DejaVuSans-58" transform="translate(648.515625 0)"/>
      <use xlink:href="#DejaVuSans-4f" transform="translate(711.890625 0)"/>
      <use xlink:href="#DejaVuSans-57" transform="translate(739.671875 0)"/>
     </g>
    </g>
   </g>
  </g>
  <g id="axes_2">
   <g id="patch_5">
    <path d="M 229.632228 207.648 
L 384.901793 207.648 
L 384.901793 30.24 
L 229.632228 30.24 
z
" style="fill: #fcfcfb"/>
   </g>
   <g id="matplotlib.axis_3">
    <g id="xtick_4">
     <g id="line2d_18">
      <path d="M 236.689936 207.648 
L 236.689936 30.24 
" clip-path="url(#p7000e9a1c8)" style="fill: none; stroke: #e4e4e1; stroke-width: 0.7; stroke-linecap: square"/>
     </g>
     <g id="line2d_19">
      <g>
       <use xlink:href="#mfe868e00b8" x="236.689936" y="207.648" style="fill: #5c5c5c; stroke: #5c5c5c; stroke-width: 0.8"/>
      </g>
     </g>
     <g id="text_12">
      <!-- 0.0 -->
      <g style="fill: #5c5c5c" transform="translate(229.135951 221.865773) scale(0.095 -0.095)">
       <use xlink:href="#DejaVuSans-13"/>
       <use xlink:href="#DejaVuSans-11" transform="translate(63.625 0)"/>
       <use xlink:href="#DejaVuSans-13" transform="translate(95.40625 0)"/>
      </g>
     </g>
    </g>
    <g id="xtick_5">
     <g id="line2d_20">
      <path d="M 271.978473 207.648 
L 271.978473 30.24 
" clip-path="url(#p7000e9a1c8)" style="fill: none; stroke: #e4e4e1; stroke-width: 0.7; stroke-linecap: square"/>
     </g>
     <g id="line2d_21">
      <g>
       <use xlink:href="#mfe868e00b8" x="271.978473" y="207.648" style="fill: #5c5c5c; stroke: #5c5c5c; stroke-width: 0.8"/>
      </g>
     </g>
     <g id="text_13">
      <!-- 2.5 -->
      <g style="fill: #5c5c5c" transform="translate(264.424489 221.865773) scale(0.095 -0.095)">
       <use xlink:href="#DejaVuSans-15"/>
       <use xlink:href="#DejaVuSans-11" transform="translate(63.625 0)"/>
       <use xlink:href="#DejaVuSans-18" transform="translate(95.40625 0)"/>
      </g>
     </g>
    </g>
    <g id="xtick_6">
     <g id="line2d_22">
      <path d="M 307.267011 207.648 
L 307.267011 30.24 
" clip-path="url(#p7000e9a1c8)" style="fill: none; stroke: #e4e4e1; stroke-width: 0.7; stroke-linecap: square"/>
     </g>
     <g id="line2d_23">
      <g>
       <use xlink:href="#mfe868e00b8" x="307.267011" y="207.648" style="fill: #5c5c5c; stroke: #5c5c5c; stroke-width: 0.8"/>
      </g>
     </g>
     <g id="text_14">
      <!-- 5.0 -->
      <g style="fill: #5c5c5c" transform="translate(299.713026 221.865773) scale(0.095 -0.095)">
       <use xlink:href="#DejaVuSans-18"/>
       <use xlink:href="#DejaVuSans-11" transform="translate(63.625 0)"/>
       <use xlink:href="#DejaVuSans-13" transform="translate(95.40625 0)"/>
      </g>
     </g>
    </g>
    <g id="xtick_7">
     <g id="line2d_24">
      <path d="M 342.555548 207.648 
L 342.555548 30.24 
" clip-path="url(#p7000e9a1c8)" style="fill: none; stroke: #e4e4e1; stroke-width: 0.7; stroke-linecap: square"/>
     </g>
     <g id="line2d_25">
      <g>
       <use xlink:href="#mfe868e00b8" x="342.555548" y="207.648" style="fill: #5c5c5c; stroke: #5c5c5c; stroke-width: 0.8"/>
      </g>
     </g>
     <g id="text_15">
      <!-- 7.5 -->
      <g style="fill: #5c5c5c" transform="translate(335.001564 221.865773) scale(0.095 -0.095)">
       <use xlink:href="#DejaVuSans-1a"/>
       <use xlink:href="#DejaVuSans-11" transform="translate(63.625 0)"/>
       <use xlink:href="#DejaVuSans-18" transform="translate(95.40625 0)"/>
      </g>
     </g>
    </g>
    <g id="xtick_8">
     <g id="line2d_26">
      <path d="M 377.844086 207.648 
L 377.844086 30.24 
" clip-path="url(#p7000e9a1c8)" style="fill: none; stroke: #e4e4e1; stroke-width: 0.7; stroke-linecap: square"/>
     </g>
     <g id="line2d_27">
      <g>
       <use xlink:href="#mfe868e00b8" x="377.844086" y="207.648" style="fill: #5c5c5c; stroke: #5c5c5c; stroke-width: 0.8"/>
      </g>
     </g>
     <g id="text_16">
      <!-- 10.0 -->
      <g style="fill: #5c5c5c" transform="translate(367.267914 221.865773) scale(0.095 -0.095)">
       <use xlink:href="#DejaVuSans-14"/>
       <use xlink:href="#DejaVuSans-13" transform="translate(63.625 0)"/>
       <use xlink:href="#DejaVuSans-11" transform="translate(127.25 0)"/>
       <use xlink:href="#DejaVuSans-13" transform="translate(159.03125 0)"/>
      </g>
     </g>
    </g>
    <g id="text_17">
     <!-- rebalance_confirm_days -->
     <g style="fill: #5c5c5c" transform="translate(246.792011 235.746437) scale(0.1 -0.1)">
      <defs>
       <path id="DejaVuSans-51" d="M 3513 2113 
L 3513 0 
L 2938 0 
L 2938 2094 
Q 2938 2591 2744 2837 
Q 2550 3084 2163 3084 
Q 1697 3084 1428 2787 
Q 1159 2491 1159 1978 
L 1159 0 
L 581 0 
L 581 3500 
L 1159 3500 
L 1159 2956 
Q 1366 3272 1645 3428 
Q 1925 3584 2291 3584 
Q 2894 3584 3203 3211 
Q 3513 2838 3513 2113 
z
" transform="scale(0.015625)"/>
       <path id="DejaVuSans-13af" d="M 3431 3500 
L 3431 0 
L 2853 0 
L 2853 3053 
L 1275 3053 
L 1275 0 
L 697 0 
L 697 3053 
L 147 3053 
L 147 3500 
L 697 3500 
L 697 3744 
Q 697 4316 967 4589 
Q 1238 4863 1797 4863 
L 2375 4863 
L 2375 4384 
L 1825 4384 
Q 1516 4384 1395 4259 
Q 1275 4134 1275 3809 
L 1275 3500 
L 3431 3500 
z
M 2853 4856 
L 3431 4856 
L 3431 4128 
L 2853 4128 
L 2853 4856 
z
" transform="scale(0.015625)"/>
       <path id="DejaVuSans-50" d="M 3328 2828 
Q 3544 3216 3844 3400 
Q 4144 3584 4550 3584 
Q 5097 3584 5394 3201 
Q 5691 2819 5691 2113 
L 5691 0 
L 5113 0 
L 5113 2094 
Q 5113 2597 4934 2840 
Q 4756 3084 4391 3084 
Q 3944 3084 3684 2787 
Q 3425 2491 3425 1978 
L 3425 0 
L 2847 0 
L 2847 2094 
Q 2847 2600 2669 2842 
Q 2491 3084 2119 3084 
Q 1678 3084 1418 2786 
Q 1159 2488 1159 1978 
L 1159 0 
L 581 0 
L 581 3500 
L 1159 3500 
L 1159 2956 
Q 1356 3278 1631 3431 
Q 1906 3584 2284 3584 
Q 2666 3584 2933 3390 
Q 3200 3197 3328 2828 
z
" transform="scale(0.015625)"/>
       <path id="DejaVuSans-5c" d="M 2059 -325 
Q 1816 -950 1584 -1140 
Q 1353 -1331 966 -1331 
L 506 -1331 
L 506 -850 
L 844 -850 
Q 1081 -850 1212 -737 
Q 1344 -625 1503 -206 
L 1606 56 
L 191 3500 
L 800 3500 
L 1894 763 
L 2988 3500 
L 3597 3500 
L 2059 -325 
z
" transform="scale(0.015625)"/>
      </defs>
      <use xlink:href="#DejaVuSans-55"/>
      <use xlink:href="#DejaVuSans-48" transform="translate(38.90625 0)"/>
      <use xlink:href="#DejaVuSans-45" transform="translate(100.4375 0)"/>
      <use xlink:href="#DejaVuSans-44" transform="translate(163.921875 0)"/>
      <use xlink:href="#DejaVuSans-4f" transform="translate(225.203125 0)"/>
      <use xlink:href="#DejaVuSans-44" transform="translate(252.984375 0)"/>
      <use xlink:href="#DejaVuSans-51" transform="translate(314.265625 0)"/>
      <use xlink:href="#DejaVuSans-46" transform="translate(377.640625 0)"/>
      <use xlink:href="#DejaVuSans-48" transform="translate(432.625 0)"/>
      <use xlink:href="#DejaVuSans-42" transform="translate(494.15625 0)"/>
      <use xlink:href="#DejaVuSans-46" transform="translate(544.15625 0)"/>
      <use xlink:href="#DejaVuSans-52" transform="translate(599.140625 0)"/>
      <use xlink:href="#DejaVuSans-51" transform="translate(660.328125 0)"/>
      <use xlink:href="#DejaVuSans-13af" transform="translate(723.703125 0)"/>
      <use xlink:href="#DejaVuSans-55" transform="translate(786.6875 0)"/>
      <use xlink:href="#DejaVuSans-50" transform="translate(826.046875 0)"/>
      <use xlink:href="#DejaVuSans-42" transform="translate(923.453125 0)"/>
      <use xlink:href="#DejaVuSans-47" transform="translate(973.453125 0)"/>
      <use xlink:href="#DejaVuSans-44" transform="translate(1036.9375 0)"/>
      <use xlink:href="#DejaVuSans-5c" transform="translate(1098.21875 0)"/>
      <use xlink:href="#DejaVuSans-56" transform="translate(1157.40625 0)"/>
     </g>
    </g>
   </g>
   <g id="matplotlib.axis_4">
    <g id="ytick_6">
     <g id="line2d_28">
      <path d="M 229.632228 192.045268 
L 384.901793 192.045268 
" clip-path="url(#p7000e9a1c8)" style="fill: none; stroke: #e4e4e1; stroke-width: 0.7; stroke-linecap: square"/>
     </g>
     <g id="line2d_29">
      <g>
       <use xlink:href="#m6d9076f696" x="229.632228" y="192.045268" style="fill: #5c5c5c; stroke: #5c5c5c; stroke-width: 0.8"/>
      </g>
     </g>
    </g>
    <g id="ytick_7">
     <g id="line2d_30">
      <path d="M 229.632228 157.143732 
L 384.901793 157.143732 
" clip-path="url(#p7000e9a1c8)" style="fill: none; stroke: #e4e4e1; stroke-width: 0.7; stroke-linecap: square"/>
     </g>
     <g id="line2d_31">
      <g>
       <use xlink:href="#m6d9076f696" x="229.632228" y="157.143732" style="fill: #5c5c5c; stroke: #5c5c5c; stroke-width: 0.8"/>
      </g>
     </g>
    </g>
    <g id="ytick_8">
     <g id="line2d_32">
      <path d="M 229.632228 122.242195 
L 384.901793 122.242195 
" clip-path="url(#p7000e9a1c8)" style="fill: none; stroke: #e4e4e1; stroke-width: 0.7; stroke-linecap: square"/>
     </g>
     <g id="line2d_33">
      <g>
       <use xlink:href="#m6d9076f696" x="229.632228" y="122.242195" style="fill: #5c5c5c; stroke: #5c5c5c; stroke-width: 0.8"/>
      </g>
     </g>
    </g>
    <g id="ytick_9">
     <g id="line2d_34">
      <path d="M 229.632228 87.340659 
L 384.901793 87.340659 
" clip-path="url(#p7000e9a1c8)" style="fill: none; stroke: #e4e4e1; stroke-width: 0.7; stroke-linecap: square"/>
     </g>
     <g id="line2d_35">
      <g>
       <use xlink:href="#m6d9076f696" x="229.632228" y="87.340659" style="fill: #5c5c5c; stroke: #5c5c5c; stroke-width: 0.8"/>
      </g>
     </g>
    </g>
    <g id="ytick_10">
     <g id="line2d_36">
      <path d="M 229.632228 52.439122 
L 384.901793 52.439122 
" clip-path="url(#p7000e9a1c8)" style="fill: none; stroke: #e4e4e1; stroke-width: 0.7; stroke-linecap: square"/>
     </g>
     <g id="line2d_37">
      <g>
       <use xlink:href="#m6d9076f696" x="229.632228" y="52.439122" style="fill: #5c5c5c; stroke: #5c5c5c; stroke-width: 0.8"/>
      </g>
     </g>
    </g>
   </g>
   <g id="line2d_38">
    <path d="M 236.689936 77.707835 
L 250.805351 77.707835 
L 279.036181 44.097655 
L 307.267011 61.234309 
L 377.844086 40.328289 
" clip-path="url(#p7000e9a1c8)" style="fill: none; stroke: #37474f; stroke-width: 1.5; stroke-linecap: square"/>
    <g clip-path="url(#p7000e9a1c8)">
     <use xlink:href="#mc5656b1530" x="236.689936" y="77.707835" style="fill: #37474f; stroke: #37474f"/>
     <use xlink:href="#mc5656b1530" x="250.805351" y="77.707835" style="fill: #37474f; stroke: #37474f"/>
     <use xlink:href="#mc5656b1530" x="279.036181" y="44.097655" style="fill: #37474f; stroke: #37474f"/>
     <use xlink:href="#mc5656b1530" x="307.267011" y="61.234309" style="fill: #37474f; stroke: #37474f"/>
     <use xlink:href="#mc5656b1530" x="377.844086" y="40.328289" style="fill: #37474f; stroke: #37474f"/>
    </g>
   </g>
   <g id="patch_6">
    <path d="M 229.632228 207.648 
L 229.632228 30.24 
" style="fill: none; stroke: #8a8a8a; stroke-width: 0.8; stroke-linejoin: miter; stroke-linecap: square"/>
   </g>
   <g id="patch_7">
    <path d="M 229.632228 207.648 
L 384.901793 207.648 
" style="fill: none; stroke: #8a8a8a; stroke-width: 0.8; stroke-linejoin: miter; stroke-linecap: square"/>
   </g>
   <g id="PathCollection_3">
    <path d="M 279.036181 49.341699 
C 280.426918 49.341699 281.760881 48.789154 282.74428 47.805754 
C 283.727679 46.822355 284.280225 45.488392 284.280225 44.097655 
C 284.280225 42.706918 283.727679 41.372955 282.74428 40.389556 
C 281.760881 39.406156 280.426918 38.853611 279.036181 38.853611 
C 277.645444 38.853611 276.311481 39.406156 275.328082 40.389556 
C 274.344682 41.372955 273.792137 42.706918 273.792137 44.097655 
C 273.792137 45.488392 274.344682 46.822355 275.328082 47.805754 
C 276.311481 48.789154 277.645444 49.341699 279.036181 49.341699 
L 279.036181 49.341699 
z
" clip-path="url(#p7000e9a1c8)" style="fill: none; stroke: #c8501e; stroke-width: 2"/>
   </g>
   <g id="legend_2">
    <g id="PathCollection_4">
     <path d="M 244.832228 201.670169 
C 246.222965 201.670169 247.556928 201.117624 248.540328 200.134224 
C 249.523727 199.150825 250.076273 197.816862 250.076273 196.426125 
C 250.076273 195.035388 249.523727 193.701425 248.540328 192.718026 
C 247.556928 191.734626 246.222965 191.182081 244.832228 191.182081 
C 243.441491 191.182081 242.107528 191.734626 241.124129 192.718026 
C 240.14073 193.701425 239.588184 195.035388 239.588184 196.426125 
C 239.588184 197.816862 240.14073 199.150825 241.124129 200.134224 
C 242.107528 201.117624 243.441491 201.670169 244.832228 201.670169 
L 244.832228 201.670169 
z
" style="fill: none; stroke: #c8501e; stroke-width: 2"/>
    </g>
    <g id="text_18">
     <!-- shipped default -->
     <g transform="translate(259.232228 198.526125) scale(0.08 -0.08)">
      <use xlink:href="#DejaVuSans-56"/>
      <use xlink:href="#DejaVuSans-4b" transform="translate(52.09375 0)"/>
      <use xlink:href="#DejaVuSans-4c" transform="translate(115.46875 0)"/>
      <use xlink:href="#DejaVuSans-53" transform="translate(143.25 0)"/>
      <use xlink:href="#DejaVuSans-53" transform="translate(206.734375 0)"/>
      <use xlink:href="#DejaVuSans-48" transform="translate(270.21875 0)"/>
      <use xlink:href="#DejaVuSans-47" transform="translate(331.75 0)"/>
      <use xlink:href="#DejaVuSans-3" transform="translate(395.234375 0)"/>
      <use xlink:href="#DejaVuSans-47" transform="translate(427.015625 0)"/>
      <use xlink:href="#DejaVuSans-48" transform="translate(490.5 0)"/>
      <use xlink:href="#DejaVuSans-49" transform="translate(552.03125 0)"/>
      <use xlink:href="#DejaVuSans-44" transform="translate(587.234375 0)"/>
      <use xlink:href="#DejaVuSans-58" transform="translate(648.515625 0)"/>
      <use xlink:href="#DejaVuSans-4f" transform="translate(711.890625 0)"/>
      <use xlink:href="#DejaVuSans-57" transform="translate(739.671875 0)"/>
     </g>
    </g>
   </g>
  </g>
  <g id="axes_3">
   <g id="patch_8">
    <path d="M 415.955707 207.648 
L 571.225272 207.648 
L 571.225272 30.24 
L 415.955707 30.24 
z
" style="fill: #fcfcfb"/>
   </g>
   <g id="matplotlib.axis_5">
    <g id="xtick_9">
     <g id="line2d_39">
      <path d="M 423.013414 207.648 
L 423.013414 30.24 
" clip-path="url(#pf088e57595)" style="fill: none; stroke: #e4e4e1; stroke-width: 0.7; stroke-linecap: square"/>
     </g>
     <g id="line2d_40">
      <g>
       <use xlink:href="#mfe868e00b8" x="423.013414" y="207.648" style="fill: #5c5c5c; stroke: #5c5c5c; stroke-width: 0.8"/>
      </g>
     </g>
     <g id="text_19">
      <!-- 0.4 -->
      <g style="fill: #5c5c5c" transform="translate(415.45943 221.865773) scale(0.095 -0.095)">
       <use xlink:href="#DejaVuSans-13"/>
       <use xlink:href="#DejaVuSans-11" transform="translate(63.625 0)"/>
       <use xlink:href="#DejaVuSans-17" transform="translate(95.40625 0)"/>
      </g>
     </g>
    </g>
    <g id="xtick_10">
     <g id="line2d_41">
      <path d="M 470.064797 207.648 
L 470.064797 30.24 
" clip-path="url(#pf088e57595)" style="fill: none; stroke: #e4e4e1; stroke-width: 0.7; stroke-linecap: square"/>
     </g>
     <g id="line2d_42">
      <g>
       <use xlink:href="#mfe868e00b8" x="470.064797" y="207.648" style="fill: #5c5c5c; stroke: #5c5c5c; stroke-width: 0.8"/>
      </g>
     </g>
     <g id="text_20">
      <!-- 0.6 -->
      <g style="fill: #5c5c5c" transform="translate(462.510813 221.865773) scale(0.095 -0.095)">
       <use xlink:href="#DejaVuSans-13"/>
       <use xlink:href="#DejaVuSans-11" transform="translate(63.625 0)"/>
       <use xlink:href="#DejaVuSans-19" transform="translate(95.40625 0)"/>
      </g>
     </g>
    </g>
    <g id="xtick_11">
     <g id="line2d_43">
      <path d="M 517.116181 207.648 
L 517.116181 30.24 
" clip-path="url(#pf088e57595)" style="fill: none; stroke: #e4e4e1; stroke-width: 0.7; stroke-linecap: square"/>
     </g>
     <g id="line2d_44">
      <g>
       <use xlink:href="#mfe868e00b8" x="517.116181" y="207.648" style="fill: #5c5c5c; stroke: #5c5c5c; stroke-width: 0.8"/>
      </g>
     </g>
     <g id="text_21">
      <!-- 0.8 -->
      <g style="fill: #5c5c5c" transform="translate(509.562196 221.865773) scale(0.095 -0.095)">
       <use xlink:href="#DejaVuSans-13"/>
       <use xlink:href="#DejaVuSans-11" transform="translate(63.625 0)"/>
       <use xlink:href="#DejaVuSans-1b" transform="translate(95.40625 0)"/>
      </g>
     </g>
    </g>
    <g id="xtick_12">
     <g id="line2d_45">
      <path d="M 564.167564 207.648 
L 564.167564 30.24 
" clip-path="url(#pf088e57595)" style="fill: none; stroke: #e4e4e1; stroke-width: 0.7; stroke-linecap: square"/>
     </g>
     <g id="line2d_46">
      <g>
       <use xlink:href="#mfe868e00b8" x="564.167564" y="207.648" style="fill: #5c5c5c; stroke: #5c5c5c; stroke-width: 0.8"/>
      </g>
     </g>
     <g id="text_22">
      <!-- 1.0 -->
      <g style="fill: #5c5c5c" transform="translate(556.61358 221.865773) scale(0.095 -0.095)">
       <use xlink:href="#DejaVuSans-14"/>
       <use xlink:href="#DejaVuSans-11" transform="translate(63.625 0)"/>
       <use xlink:href="#DejaVuSans-13" transform="translate(95.40625 0)"/>
      </g>
     </g>
    </g>
    <g id="text_23">
     <!-- weight_cap -->
     <g style="fill: #5c5c5c" transform="translate(465.245177 235.746437) scale(0.1 -0.1)">
      <defs>
       <path id="DejaVuSans-5a" d="M 269 3500 
L 844 3500 
L 1563 769 
L 2278 3500 
L 2956 3500 
L 3675 769 
L 4391 3500 
L 4966 3500 
L 4050 0 
L 3372 0 
L 2619 2869 
L 1863 0 
L 1184 0 
L 269 3500 
z
" transform="scale(0.015625)"/>
       <path id="DejaVuSans-4a" d="M 2906 1791 
Q 2906 2416 2648 2759 
Q 2391 3103 1925 3103 
Q 1463 3103 1205 2759 
Q 947 2416 947 1791 
Q 947 1169 1205 825 
Q 1463 481 1925 481 
Q 2391 481 2648 825 
Q 2906 1169 2906 1791 
z
M 3481 434 
Q 3481 -459 3084 -895 
Q 2688 -1331 1869 -1331 
Q 1566 -1331 1297 -1286 
Q 1028 -1241 775 -1147 
L 775 -588 
Q 1028 -725 1275 -790 
Q 1522 -856 1778 -856 
Q 2344 -856 2625 -561 
Q 2906 -266 2906 331 
L 2906 616 
Q 2728 306 2450 153 
Q 2172 0 1784 0 
Q 1141 0 747 490 
Q 353 981 353 1791 
Q 353 2603 747 3093 
Q 1141 3584 1784 3584 
Q 2172 3584 2450 3431 
Q 2728 3278 2906 2969 
L 2906 3500 
L 3481 3500 
L 3481 434 
z
" transform="scale(0.015625)"/>
      </defs>
      <use xlink:href="#DejaVuSans-5a"/>
      <use xlink:href="#DejaVuSans-48" transform="translate(81.78125 0)"/>
      <use xlink:href="#DejaVuSans-4c" transform="translate(143.3125 0)"/>
      <use xlink:href="#DejaVuSans-4a" transform="translate(171.09375 0)"/>
      <use xlink:href="#DejaVuSans-4b" transform="translate(234.578125 0)"/>
      <use xlink:href="#DejaVuSans-57" transform="translate(297.953125 0)"/>
      <use xlink:href="#DejaVuSans-42" transform="translate(337.15625 0)"/>
      <use xlink:href="#DejaVuSans-46" transform="translate(387.15625 0)"/>
      <use xlink:href="#DejaVuSans-44" transform="translate(442.140625 0)"/>
      <use xlink:href="#DejaVuSans-53" transform="translate(503.421875 0)"/>
     </g>
    </g>
   </g>
   <g id="matplotlib.axis_6">
    <g id="ytick_11">
     <g id="line2d_47">
      <path d="M 415.955707 192.045268 
L 571.225272 192.045268 
" clip-path="url(#pf088e57595)" style="fill: none; stroke: #e4e4e1; stroke-width: 0.7; stroke-linecap: square"/>
     </g>
     <g id="line2d_48">
      <g>
       <use xlink:href="#m6d9076f696" x="415.955707" y="192.045268" style="fill: #5c5c5c; stroke: #5c5c5c; stroke-width: 0.8"/>
      </g>
     </g>
    </g>
    <g id="ytick_12">
     <g id="line2d_49">
      <path d="M 415.955707 157.143732 
L 571.225272 157.143732 
" clip-path="url(#pf088e57595)" style="fill: none; stroke: #e4e4e1; stroke-width: 0.7; stroke-linecap: square"/>
     </g>
     <g id="line2d_50">
      <g>
       <use xlink:href="#m6d9076f696" x="415.955707" y="157.143732" style="fill: #5c5c5c; stroke: #5c5c5c; stroke-width: 0.8"/>
      </g>
     </g>
    </g>
    <g id="ytick_13">
     <g id="line2d_51">
      <path d="M 415.955707 122.242195 
L 571.225272 122.242195 
" clip-path="url(#pf088e57595)" style="fill: none; stroke: #e4e4e1; stroke-width: 0.7; stroke-linecap: square"/>
     </g>
     <g id="line2d_52">
      <g>
       <use xlink:href="#m6d9076f696" x="415.955707" y="122.242195" style="fill: #5c5c5c; stroke: #5c5c5c; stroke-width: 0.8"/>
      </g>
     </g>
    </g>
    <g id="ytick_14">
     <g id="line2d_53">
      <path d="M 415.955707 87.340659 
L 571.225272 87.340659 
" clip-path="url(#pf088e57595)" style="fill: none; stroke: #e4e4e1; stroke-width: 0.7; stroke-linecap: square"/>
     </g>
     <g id="line2d_54">
      <g>
       <use xlink:href="#m6d9076f696" x="415.955707" y="87.340659" style="fill: #5c5c5c; stroke: #5c5c5c; stroke-width: 0.8"/>
      </g>
     </g>
    </g>
    <g id="ytick_15">
     <g id="line2d_55">
      <path d="M 415.955707 52.439122 
L 571.225272 52.439122 
" clip-path="url(#pf088e57595)" style="fill: none; stroke: #e4e4e1; stroke-width: 0.7; stroke-linecap: square"/>
     </g>
     <g id="line2d_56">
      <g>
       <use xlink:href="#m6d9076f696" x="415.955707" y="52.439122" style="fill: #5c5c5c; stroke: #5c5c5c; stroke-width: 0.8"/>
      </g>
     </g>
    </g>
   </g>
   <g id="line2d_57">
    <path d="M 423.013414 51.147765 
L 446.539106 44.097655 
L 470.064797 44.097655 
L 517.116181 72.263195 
L 564.167564 199.584 
" clip-path="url(#pf088e57595)" style="fill: none; stroke: #37474f; stroke-width: 1.5; stroke-linecap: square"/>
    <g clip-path="url(#pf088e57595)">
     <use xlink:href="#mc5656b1530" x="423.013414" y="51.147765" style="fill: #37474f; stroke: #37474f"/>
     <use xlink:href="#mc5656b1530" x="446.539106" y="44.097655" style="fill: #37474f; stroke: #37474f"/>
     <use xlink:href="#mc5656b1530" x="470.064797" y="44.097655" style="fill: #37474f; stroke: #37474f"/>
     <use xlink:href="#mc5656b1530" x="517.116181" y="72.263195" style="fill: #37474f; stroke: #37474f"/>
     <use xlink:href="#mc5656b1530" x="564.167564" y="199.584" style="fill: #37474f; stroke: #37474f"/>
    </g>
   </g>
   <g id="patch_9">
    <path d="M 415.955707 207.648 
L 415.955707 30.24 
" style="fill: none; stroke: #8a8a8a; stroke-width: 0.8; stroke-linejoin: miter; stroke-linecap: square"/>
   </g>
   <g id="patch_10">
    <path d="M 415.955707 207.648 
L 571.225272 207.648 
" style="fill: none; stroke: #8a8a8a; stroke-width: 0.8; stroke-linejoin: miter; stroke-linecap: square"/>
   </g>
   <g id="PathCollection_5">
    <path d="M 470.064797 49.341699 
C 471.455534 49.341699 472.789497 48.789154 473.772897 47.805754 
C 474.756296 46.822355 475.308842 45.488392 475.308842 44.097655 
C 475.308842 42.706918 474.756296 41.372955 473.772897 40.389556 
C 472.789497 39.406156 471.455534 38.853611 470.064797 38.853611 
C 468.674061 38.853611 467.340098 39.406156 466.356698 40.389556 
C 465.373299 41.372955 464.820753 42.706918 464.820753 44.097655 
C 464.820753 45.488392 465.373299 46.822355 466.356698 47.805754 
C 467.340098 48.789154 468.674061 49.341699 470.064797 49.341699 
L 470.064797 49.341699 
z
" clip-path="url(#pf088e57595)" style="fill: none; stroke: #c8501e; stroke-width: 2"/>
   </g>
   <g id="legend_3">
    <g id="PathCollection_6">
     <path d="M 431.155707 201.670169 
C 432.546443 201.670169 433.880406 201.117624 434.863806 200.134224 
C 435.847205 199.150825 436.399751 197.816862 436.399751 196.426125 
C 436.399751 195.035388 435.847205 193.701425 434.863806 192.718026 
C 433.880406 191.734626 432.546443 191.182081 431.155707 191.182081 
C 429.76497 191.182081 428.431007 191.734626 427.447607 192.718026 
C 426.464208 193.701425 425.911662 195.035388 425.911662 196.426125 
C 425.911662 197.816862 426.464208 199.150825 427.447607 200.134224 
C 428.431007 201.117624 429.76497 201.670169 431.155707 201.670169 
L 431.155707 201.670169 
z
" style="fill: none; stroke: #c8501e; stroke-width: 2"/>
    </g>
    <g id="text_24">
     <!-- shipped default -->
     <g transform="translate(445.555707 198.526125) scale(0.08 -0.08)">
      <use xlink:href="#DejaVuSans-56"/>
      <use xlink:href="#DejaVuSans-4b" transform="translate(52.09375 0)"/>
      <use xlink:href="#DejaVuSans-4c" transform="translate(115.46875 0)"/>
      <use xlink:href="#DejaVuSans-53" transform="translate(143.25 0)"/>
      <use xlink:href="#DejaVuSans-53" transform="translate(206.734375 0)"/>
      <use xlink:href="#DejaVuSans-48" transform="translate(270.21875 0)"/>
      <use xlink:href="#DejaVuSans-47" transform="translate(331.75 0)"/>
      <use xlink:href="#DejaVuSans-3" transform="translate(395.234375 0)"/>
      <use xlink:href="#DejaVuSans-47" transform="translate(427.015625 0)"/>
      <use xlink:href="#DejaVuSans-48" transform="translate(490.5 0)"/>
      <use xlink:href="#DejaVuSans-49" transform="translate(552.03125 0)"/>
      <use xlink:href="#DejaVuSans-44" transform="translate(587.234375 0)"/>
      <use xlink:href="#DejaVuSans-58" transform="translate(648.515625 0)"/>
      <use xlink:href="#DejaVuSans-4f" transform="translate(711.890625 0)"/>
      <use xlink:href="#DejaVuSans-57" transform="translate(739.671875 0)"/>
     </g>
    </g>
   </g>
  </g>
  <g id="axes_4">
   <g id="patch_11">
    <path d="M 602.279185 207.648 
L 757.54875 207.648 
L 757.54875 30.24 
L 602.279185 30.24 
z
" style="fill: #fcfcfb"/>
   </g>
   <g id="matplotlib.axis_7">
    <g id="xtick_13">
     <g id="line2d_58">
      <path d="M 636.970244 207.648 
L 636.970244 30.24 
" clip-path="url(#p08d076dcd5)" style="fill: none; stroke: #e4e4e1; stroke-width: 0.7; stroke-linecap: square"/>
     </g>
     <g id="line2d_59">
      <g>
       <use xlink:href="#mfe868e00b8" x="636.970244" y="207.648" style="fill: #5c5c5c; stroke: #5c5c5c; stroke-width: 0.8"/>
      </g>
     </g>
     <g id="text_25">
      <!-- 100 -->
      <g style="fill: #5c5c5c" transform="translate(627.903682 221.865773) scale(0.095 -0.095)">
       <use xlink:href="#DejaVuSans-14"/>
       <use xlink:href="#DejaVuSans-13" transform="translate(63.625 0)"/>
       <use xlink:href="#DejaVuSans-13" transform="translate(127.25 0)"/>
      </g>
     </g>
    </g>
    <g id="xtick_14">
     <g id="line2d_60">
      <path d="M 674.312612 207.648 
L 674.312612 30.24 
" clip-path="url(#p08d076dcd5)" style="fill: none; stroke: #e4e4e1; stroke-width: 0.7; stroke-linecap: square"/>
     </g>
     <g id="line2d_61">
      <g>
       <use xlink:href="#mfe868e00b8" x="674.312612" y="207.648" style="fill: #5c5c5c; stroke: #5c5c5c; stroke-width: 0.8"/>
      </g>
     </g>
     <g id="text_26">
      <!-- 150 -->
      <g style="fill: #5c5c5c" transform="translate(665.24605 221.865773) scale(0.095 -0.095)">
       <use xlink:href="#DejaVuSans-14"/>
       <use xlink:href="#DejaVuSans-18" transform="translate(63.625 0)"/>
       <use xlink:href="#DejaVuSans-13" transform="translate(127.25 0)"/>
      </g>
     </g>
    </g>
    <g id="xtick_15">
     <g id="line2d_62">
      <path d="M 711.65498 207.648 
L 711.65498 30.24 
" clip-path="url(#p08d076dcd5)" style="fill: none; stroke: #e4e4e1; stroke-width: 0.7; stroke-linecap: square"/>
     </g>
     <g id="line2d_63">
      <g>
       <use xlink:href="#mfe868e00b8" x="711.65498" y="207.648" style="fill: #5c5c5c; stroke: #5c5c5c; stroke-width: 0.8"/>
      </g>
     </g>
     <g id="text_27">
      <!-- 200 -->
      <g style="fill: #5c5c5c" transform="translate(702.588418 221.865773) scale(0.095 -0.095)">
       <use xlink:href="#DejaVuSans-15"/>
       <use xlink:href="#DejaVuSans-13" transform="translate(63.625 0)"/>
       <use xlink:href="#DejaVuSans-13" transform="translate(127.25 0)"/>
      </g>
     </g>
    </g>
    <g id="xtick_16">
     <g id="line2d_64">
      <path d="M 748.997348 207.648 
L 748.997348 30.24 
" clip-path="url(#p08d076dcd5)" style="fill: none; stroke: #e4e4e1; stroke-width: 0.7; stroke-linecap: square"/>
     </g>
     <g id="line2d_65">
      <g>
       <use xlink:href="#mfe868e00b8" x="748.997348" y="207.648" style="fill: #5c5c5c; stroke: #5c5c5c; stroke-width: 0.8"/>
      </g>
     </g>
     <g id="text_28">
      <!-- 250 -->
      <g style="fill: #5c5c5c" transform="translate(739.930785 221.865773) scale(0.095 -0.095)">
       <use xlink:href="#DejaVuSans-15"/>
       <use xlink:href="#DejaVuSans-18" transform="translate(63.625 0)"/>
       <use xlink:href="#DejaVuSans-13" transform="translate(127.25 0)"/>
      </g>
     </g>
    </g>
    <g id="text_29">
     <!-- conditional_min_obs -->
     <g style="fill: #5c5c5c" transform="translate(629.076467 235.746437) scale(0.1 -0.1)">
      <use xlink:href="#DejaVuSans-46"/>
      <use xlink:href="#DejaVuSans-52" transform="translate(54.984375 0)"/>
      <use xlink:href="#DejaVuSans-51" transform="translate(116.171875 0)"/>
      <use xlink:href="#DejaVuSans-47" transform="translate(179.546875 0)"/>
      <use xlink:href="#DejaVuSans-4c" transform="translate(243.03125 0)"/>
      <use xlink:href="#DejaVuSans-57" transform="translate(270.8125 0)"/>
      <use xlink:href="#DejaVuSans-4c" transform="translate(310.015625 0)"/>
      <use xlink:href="#DejaVuSans-52" transform="translate(337.796875 0)"/>
      <use xlink:href="#DejaVuSans-51" transform="translate(398.984375 0)"/>
      <use xlink:href="#DejaVuSans-44" transform="translate(462.359375 0)"/>
      <use xlink:href="#DejaVuSans-4f" transform="translate(523.640625 0)"/>
      <use xlink:href="#DejaVuSans-42" transform="translate(551.421875 0)"/>
      <use xlink:href="#DejaVuSans-50" transform="translate(601.421875 0)"/>
      <use xlink:href="#DejaVuSans-4c" transform="translate(698.828125 0)"/>
      <use xlink:href="#DejaVuSans-51" transform="translate(726.609375 0)"/>
      <use xlink:href="#DejaVuSans-42" transform="translate(789.984375 0)"/>
      <use xlink:href="#DejaVuSans-52" transform="translate(839.984375 0)"/>
      <use xlink:href="#DejaVuSans-45" transform="translate(901.171875 0)"/>
      <use xlink:href="#DejaVuSans-56" transform="translate(964.65625 0)"/>
     </g>
    </g>
   </g>
   <g id="matplotlib.axis_8">
    <g id="ytick_16">
     <g id="line2d_66">
      <path d="M 602.279185 192.045268 
L 757.54875 192.045268 
" clip-path="url(#p08d076dcd5)" style="fill: none; stroke: #e4e4e1; stroke-width: 0.7; stroke-linecap: square"/>
     </g>
     <g id="line2d_67">
      <g>
       <use xlink:href="#m6d9076f696" x="602.279185" y="192.045268" style="fill: #5c5c5c; stroke: #5c5c5c; stroke-width: 0.8"/>
      </g>
     </g>
    </g>
    <g id="ytick_17">
     <g id="line2d_68">
      <path d="M 602.279185 157.143732 
L 757.54875 157.143732 
" clip-path="url(#p08d076dcd5)" style="fill: none; stroke: #e4e4e1; stroke-width: 0.7; stroke-linecap: square"/>
     </g>
     <g id="line2d_69">
      <g>
       <use xlink:href="#m6d9076f696" x="602.279185" y="157.143732" style="fill: #5c5c5c; stroke: #5c5c5c; stroke-width: 0.8"/>
      </g>
     </g>
    </g>
    <g id="ytick_18">
     <g id="line2d_70">
      <path d="M 602.279185 122.242195 
L 757.54875 122.242195 
" clip-path="url(#p08d076dcd5)" style="fill: none; stroke: #e4e4e1; stroke-width: 0.7; stroke-linecap: square"/>
     </g>
     <g id="line2d_71">
      <g>
       <use xlink:href="#m6d9076f696" x="602.279185" y="122.242195" style="fill: #5c5c5c; stroke: #5c5c5c; stroke-width: 0.8"/>
      </g>
     </g>
    </g>
    <g id="ytick_19">
     <g id="line2d_72">
      <path d="M 602.279185 87.340659 
L 757.54875 87.340659 
" clip-path="url(#p08d076dcd5)" style="fill: none; stroke: #e4e4e1; stroke-width: 0.7; stroke-linecap: square"/>
     </g>
     <g id="line2d_73">
      <g>
       <use xlink:href="#m6d9076f696" x="602.279185" y="87.340659" style="fill: #5c5c5c; stroke: #5c5c5c; stroke-width: 0.8"/>
      </g>
     </g>
    </g>
    <g id="ytick_20">
     <g id="line2d_74">
      <path d="M 602.279185 52.439122 
L 757.54875 52.439122 
" clip-path="url(#p08d076dcd5)" style="fill: none; stroke: #e4e4e1; stroke-width: 0.7; stroke-linecap: square"/>
     </g>
     <g id="line2d_75">
      <g>
       <use xlink:href="#m6d9076f696" x="602.279185" y="52.439122" style="fill: #5c5c5c; stroke: #5c5c5c; stroke-width: 0.8"/>
      </g>
     </g>
    </g>
   </g>
   <g id="line2d_76">
    <path d="M 609.336892 41.689449 
L 656.388276 44.097655 
L 750.491042 42.806298 
" clip-path="url(#p08d076dcd5)" style="fill: none; stroke: #37474f; stroke-width: 1.5; stroke-linecap: square"/>
    <g clip-path="url(#p08d076dcd5)">
     <use xlink:href="#mc5656b1530" x="609.336892" y="41.689449" style="fill: #37474f; stroke: #37474f"/>
     <use xlink:href="#mc5656b1530" x="656.388276" y="44.097655" style="fill: #37474f; stroke: #37474f"/>
     <use xlink:href="#mc5656b1530" x="750.491042" y="42.806298" style="fill: #37474f; stroke: #37474f"/>
    </g>
   </g>
   <g id="patch_12">
    <path d="M 602.279185 207.648 
L 602.279185 30.24 
" style="fill: none; stroke: #8a8a8a; stroke-width: 0.8; stroke-linejoin: miter; stroke-linecap: square"/>
   </g>
   <g id="patch_13">
    <path d="M 602.279185 207.648 
L 757.54875 207.648 
" style="fill: none; stroke: #8a8a8a; stroke-width: 0.8; stroke-linejoin: miter; stroke-linecap: square"/>
   </g>
   <g id="PathCollection_7">
    <path d="M 656.388276 49.341699 
C 657.779012 49.341699 659.112976 48.789154 660.096375 47.805754 
C 661.079774 46.822355 661.63232 45.488392 661.63232 44.097655 
C 661.63232 42.706918 661.079774 41.372955 660.096375 40.389556 
C 659.112976 39.406156 657.779012 38.853611 656.388276 38.853611 
C 654.997539 38.853611 653.663576 39.406156 652.680176 40.389556 
C 651.696777 41.372955 651.144231 42.706918 651.144231 44.097655 
C 651.144231 45.488392 651.696777 46.822355 652.680176 47.805754 
C 653.663576 48.789154 654.997539 49.341699 656.388276 49.341699 
L 656.388276 49.341699 
z
" clip-path="url(#p08d076dcd5)" style="fill: none; stroke: #c8501e; stroke-width: 2"/>
   </g>
   <g id="legend_4">
    <g id="PathCollection_8">
     <path d="M 617.479185 201.670169 
C 618.869922 201.670169 620.203885 201.117624 621.187284 200.134224 
C 622.170683 199.150825 622.723229 197.816862 622.723229 196.426125 
C 622.723229 195.035388 622.170683 193.701425 621.187284 192.718026 
C 620.203885 191.734626 618.869922 191.182081 617.479185 191.182081 
C 616.088448 191.182081 614.754485 191.734626 613.771086 192.718026 
C 612.787686 193.701425 612.235141 195.035388 612.235141 196.426125 
C 612.235141 197.816862 612.787686 199.150825 613.771086 200.134224 
C 614.754485 201.117624 616.088448 201.670169 617.479185 201.670169 
L 617.479185 201.670169 
z
" style="fill: none; stroke: #c8501e; stroke-width: 2"/>
    </g>
    <g id="text_30">
     <!-- shipped default -->
     <g transform="translate(631.879185 198.526125) scale(0.08 -0.08)">
      <use xlink:href="#DejaVuSans-56"/>
      <use xlink:href="#DejaVuSans-4b" transform="translate(52.09375 0)"/>
      <use xlink:href="#DejaVuSans-4c" transform="translate(115.46875 0)"/>
      <use xlink:href="#DejaVuSans-53" transform="translate(143.25 0)"/>
      <use xlink:href="#DejaVuSans-53" transform="translate(206.734375 0)"/>
      <use xlink:href="#DejaVuSans-48" transform="translate(270.21875 0)"/>
      <use xlink:href="#DejaVuSans-47" transform="translate(331.75 0)"/>
      <use xlink:href="#DejaVuSans-3" transform="translate(395.234375 0)"/>
      <use xlink:href="#DejaVuSans-47" transform="translate(427.015625 0)"/>
      <use xlink:href="#DejaVuSans-48" transform="translate(490.5 0)"/>
      <use xlink:href="#DejaVuSans-49" transform="translate(552.03125 0)"/>
      <use xlink:href="#DejaVuSans-44" transform="translate(587.234375 0)"/>
      <use xlink:href="#DejaVuSans-58" transform="translate(648.515625 0)"/>
      <use xlink:href="#DejaVuSans-4f" transform="translate(711.890625 0)"/>
      <use xlink:href="#DejaVuSans-57" transform="translate(739.671875 0)"/>
     </g>
    </g>
   </g>
  </g>
  <g id="text_31">
   <!-- INDIA parameter sensitivity (flat = conclusion is robust) -->
   <g transform="translate(221.365313 16.318125) scale(0.12 -0.12)">
    <defs>
     <path id="DejaVuSans-2c" d="M 628 4666 
L 1259 4666 
L 1259 0 
L 628 0 
L 628 4666 
z
" transform="scale(0.015625)"/>
     <path id="DejaVuSans-31" d="M 628 4666 
L 1478 4666 
L 3547 763 
L 3547 4666 
L 4159 4666 
L 4159 0 
L 3309 0 
L 1241 3903 
L 1241 0 
L 628 0 
L 628 4666 
z
" transform="scale(0.015625)"/>
     <path id="DejaVuSans-27" d="M 1259 4147 
L 1259 519 
L 2022 519 
Q 2988 519 3436 956 
Q 3884 1394 3884 2338 
Q 3884 3275 3436 3711 
Q 2988 4147 2022 4147 
L 1259 4147 
z
M 628 4666 
L 1925 4666 
Q 3281 4666 3915 4102 
Q 4550 3538 4550 2338 
Q 4550 1131 3912 565 
Q 3275 0 1925 0 
L 628 0 
L 628 4666 
z
" transform="scale(0.015625)"/>
     <path id="DejaVuSans-24" d="M 2188 4044 
L 1331 1722 
L 3047 1722 
L 2188 4044 
z
M 1831 4666 
L 2547 4666 
L 4325 0 
L 3669 0 
L 3244 1197 
L 1141 1197 
L 716 0 
L 50 0 
L 1831 4666 
z
" transform="scale(0.015625)"/>
     <path id="DejaVuSans-59" d="M 191 3500 
L 800 3500 
L 1894 563 
L 2988 3500 
L 3597 3500 
L 2284 0 
L 1503 0 
L 191 3500 
z
" transform="scale(0.015625)"/>
     <path id="DejaVuSans-b" d="M 1984 4856 
Q 1566 4138 1362 3434 
Q 1159 2731 1159 2009 
Q 1159 1288 1364 580 
Q 1569 -128 1984 -844 
L 1484 -844 
Q 1016 -109 783 600 
Q 550 1309 550 2009 
Q 550 2706 781 3412 
Q 1013 4119 1484 4856 
L 1984 4856 
z
" transform="scale(0.015625)"/>
     <path id="DejaVuSans-13b0" d="M 1831 4863 
L 3431 4863 
L 3431 0 
L 2853 0 
L 2853 4384 
L 1825 4384 
Q 1516 4384 1395 4259 
Q 1275 4134 1275 3809 
L 1275 3500 
L 2222 3500 
L 2222 3053 
L 1275 3053 
L 1275 0 
L 697 0 
L 697 3053 
L 147 3053 
L 147 3500 
L 697 3500 
L 697 3744 
Q 697 4328 969 4595 
Q 1241 4863 1831 4863 
z
" transform="scale(0.015625)"/>
     <path id="DejaVuSans-20" d="M 678 2906 
L 4684 2906 
L 4684 2381 
L 678 2381 
L 678 2906 
z
M 678 1631 
L 4684 1631 
L 4684 1100 
L 678 1100 
L 678 1631 
z
" transform="scale(0.015625)"/>
     <path id="DejaVuSans-c" d="M 513 4856 
L 1013 4856 
Q 1481 4119 1714 3412 
Q 1947 2706 1947 2009 
Q 1947 1309 1714 600 
Q 1481 -109 1013 -844 
L 513 -844 
Q 928 -128 1133 580 
Q 1338 1288 1338 2009 
Q 1338 2731 1133 3434 
Q 928 4138 513 4856 
z
" transform="scale(0.015625)"/>
    </defs>
    <use xlink:href="#DejaVuSans-2c"/>
    <use xlink:href="#DejaVuSans-31" transform="translate(29.5 0)"/>
    <use xlink:href="#DejaVuSans-27" transform="translate(104.3125 0)"/>
    <use xlink:href="#DejaVuSans-2c" transform="translate(181.3125 0)"/>
    <use xlink:href="#DejaVuSans-24" transform="translate(210.8125 0)"/>
    <use xlink:href="#DejaVuSans-3" transform="translate(279.21875 0)"/>
    <use xlink:href="#DejaVuSans-53" transform="translate(311 0)"/>
    <use xlink:href="#DejaVuSans-44" transform="translate(374.484375 0)"/>
    <use xlink:href="#DejaVuSans-55" transform="translate(435.765625 0)"/>
    <use xlink:href="#DejaVuSans-44" transform="translate(476.875 0)"/>
    <use xlink:href="#DejaVuSans-50" transform="translate(538.15625 0)"/>
    <use xlink:href="#DejaVuSans-48" transform="translate(635.5625 0)"/>
    <use xlink:href="#DejaVuSans-57" transform="translate(697.09375 0)"/>
    <use xlink:href="#DejaVuSans-48" transform="translate(736.296875 0)"/>
    <use xlink:href="#DejaVuSans-55" transform="translate(797.828125 0)"/>
    <use xlink:href="#DejaVuSans-3" transform="translate(838.9375 0)"/>
    <use xlink:href="#DejaVuSans-56" transform="translate(870.71875 0)"/>
    <use xlink:href="#DejaVuSans-48" transform="translate(922.8125 0)"/>
    <use xlink:href="#DejaVuSans-51" transform="translate(984.34375 0)"/>
    <use xlink:href="#DejaVuSans-56" transform="translate(1047.71875 0)"/>
    <use xlink:href="#DejaVuSans-4c" transform="translate(1099.8125 0)"/>
    <use xlink:href="#DejaVuSans-57" transform="translate(1127.59375 0)"/>
    <use xlink:href="#DejaVuSans-4c" transform="translate(1166.796875 0)"/>
    <use xlink:href="#DejaVuSans-59" transform="translate(1194.578125 0)"/>
    <use xlink:href="#DejaVuSans-4c" transform="translate(1253.765625 0)"/>
    <use xlink:href="#DejaVuSans-57" transform="translate(1281.546875 0)"/>
    <use xlink:href="#DejaVuSans-5c" transform="translate(1320.75 0)"/>
    <use xlink:href="#DejaVuSans-3" transform="translate(1379.9375 0)"/>
    <use xlink:href="#DejaVuSans-b" transform="translate(1411.71875 0)"/>
    <use xlink:href="#DejaVuSans-13b0" transform="translate(1450.734375 0)"/>
    <use xlink:href="#DejaVuSans-44" transform="translate(1513.71875 0)"/>
    <use xlink:href="#DejaVuSans-57" transform="translate(1575 0)"/>
    <use xlink:href="#DejaVuSans-3" transform="translate(1614.203125 0)"/>
    <use xlink:href="#DejaVuSans-20" transform="translate(1645.984375 0)"/>
    <use xlink:href="#DejaVuSans-3" transform="translate(1729.78125 0)"/>
    <use xlink:href="#DejaVuSans-46" transform="translate(1761.5625 0)"/>
    <use xlink:href="#DejaVuSans-52" transform="translate(1816.546875 0)"/>
    <use xlink:href="#DejaVuSans-51" transform="translate(1877.734375 0)"/>
    <use xlink:href="#DejaVuSans-46" transform="translate(1941.109375 0)"/>
    <use xlink:href="#DejaVuSans-4f" transform="translate(1996.09375 0)"/>
    <use xlink:href="#DejaVuSans-58" transform="translate(2023.875 0)"/>
    <use xlink:href="#DejaVuSans-56" transform="translate(2087.25 0)"/>
    <use xlink:href="#DejaVuSans-4c" transform="translate(2139.34375 0)"/>
    <use xlink:href="#DejaVuSans-52" transform="translate(2167.125 0)"/>
    <use xlink:href="#DejaVuSans-51" transform="translate(2228.3125 0)"/>
    <use xlink:href="#DejaVuSans-3" transform="translate(2291.6875 0)"/>
    <use xlink:href="#DejaVuSans-4c" transform="translate(2323.46875 0)"/>
    <use xlink:href="#DejaVuSans-56" transform="translate(2351.25 0)"/>
    <use xlink:href="#DejaVuSans-3" transform="translate(2403.34375 0)"/>
    <use xlink:href="#DejaVuSans-55" transform="translate(2435.125 0)"/>
    <use xlink:href="#DejaVuSans-52" transform="translate(2474.03125 0)"/>
    <use xlink:href="#DejaVuSans-45" transform="translate(2535.21875 0)"/>
    <use xlink:href="#DejaVuSans-58" transform="translate(2598.703125 0)"/>
    <use xlink:href="#DejaVuSans-56" transform="translate(2662.078125 0)"/>
    <use xlink:href="#DejaVuSans-57" transform="translate(2714.171875 0)"/>
    <use xlink:href="#DejaVuSans-c" transform="translate(2753.375 0)"/>
   </g>
  </g>
 </g>
 <defs>
  <clipPath id="p831cbb59c7">
   <rect x="43.30875" y="30.24" width="155.269565" height="177.408"/>
  </clipPath>
  <clipPath id="p7000e9a1c8">
   <rect x="229.632228" y="30.24" width="155.269565" height="177.408"/>
  </clipPath>
  <clipPath id="pf088e57595">
   <rect x="415.955707" y="30.24" width="155.269565" height="177.408"/>
  </clipPath>
  <clipPath id="p08d076dcd5">
   <rect x="602.279185" y="30.24" width="155.269565" height="177.408"/>
  </clipPath>
 </defs>
</svg>
